<?xml version="1.0" encoding="UTF-8"?>
<svg width="48" height="48" viewBox="0 0 48 48" fill="none" xmlns="http://www.w3.org/2000/svg">
  <!-- Gradient definitions -->
  <defs>
    <linearGradient id="grad1" x1="0%" y1="0%" x2="100%" y2="100%">
      <stop offset="0%" style="stop-color:#FF66A3;stop-opacity:1" />
      <stop offset="100%" style="stop-color:#2D8CFF;stop-opacity:1" />
    </linearGradient>
  </defs>
  
  <!-- Background circle with soft shadow -->
  <circle cx="24" cy="24" r="22" fill="white" filter="url(#shadow)" />
  <filter id="shadow" x="-8" y="-8" width="64" height="64">
    <feGaussianBlur in="SourceAlpha" stdDeviation="2" />
    <feOffset dx="0" dy="2" result="offsetblur" />
    <feComponentTransfer>
      <feFuncA type="linear" slope="0.3" />
    </feComponentTransfer>
    <feMerge>
      <feMergeNode />
      <feMergeNode in="SourceGraphic" />
    </feMerge>
  </filter>
  
  <!-- Handshake icon -->
  <path d="M36 22.5c-.5-1.5-2-2.5-3.5-2.5H20.8l1.7-6.2c.2-.6.1-1.3-.2-1.9-.3-.6-.9-1-1.5-1.2l-1.2-.4-7.9 10.3c-.5.7-.8 1.6-.8 2.4V34c0 2.2 1.8 4 4 4h14.5c1.5 0 2.9-1 3.4-2.4l3.5-10.4c.2-.6.2-1.2 0-1.8v-.9z" fill="url(#grad1)"/>
  
  <!-- Decorative elements -->
  <circle cx="24" cy="24" r="21" stroke="url(#grad1)" stroke-width="2" fill="none" opacity="0.2"/>
  <circle cx="24" cy="24" r="19" stroke="url(#grad1)" stroke-width="1" fill="none" opacity="0.1"/>
</svg>